<svg width="158" height="41" viewBox="0 0 158 41" fill="none" xmlns="http://www.w3.org/2000/svg">
<path d="M47.6032 3.17076C48.7104 3.17076 49.4693 3.29576 49.88 3.54576C50.2907 3.79576 50.4961 4.23326 50.4961 4.85826V14.0725C50.4961 14.6797 50.2193 15.1172 49.6657 15.385C49.13 15.635 48.2282 15.76 46.9604 15.76C46.1211 15.76 45.4693 15.7065 45.005 15.5993C44.5586 15.4743 44.2461 15.2958 44.0675 15.0636C43.889 14.8315 43.7997 14.5011 43.7997 14.0725C43.7997 12.5368 43.3354 11.3493 42.4068 10.51C41.4782 9.67076 40.0675 9.25112 38.1747 9.25112C35.6925 9.25112 33.8086 10.144 32.5229 11.9297C31.2372 13.7154 30.5943 16.2868 30.5943 19.644C30.5943 22.9654 31.2729 25.5368 32.63 27.3583C34.005 29.1618 35.9425 30.0636 38.4425 30.0636C40.4247 30.0636 42.2997 29.7958 44.0675 29.26V24.7868H38.8979C38.4693 24.7868 38.139 24.7154 37.9068 24.5725C37.6747 24.4297 37.4961 24.1618 37.3711 23.769C37.264 23.3761 37.2104 22.8047 37.2104 22.0547C37.2104 21.3047 37.264 20.7333 37.3711 20.3404C37.4961 19.9475 37.6747 19.6797 37.9068 19.5368C38.139 19.3761 38.4693 19.2958 38.8979 19.2958H51.5943C52.0229 19.2958 52.3532 19.3761 52.5854 19.5368C52.8175 19.6797 52.9872 19.9475 53.0943 20.3404C53.2193 20.7333 53.2818 21.3047 53.2818 22.0547C53.2818 22.8047 53.2193 23.3761 53.0943 23.769C52.9872 24.1618 52.8175 24.4297 52.5854 24.5725C52.3532 24.7154 52.0229 24.7868 51.5943 24.7868H50.764V31.7243C50.764 32.1529 50.6747 32.5279 50.4961 32.8493C50.3354 33.1708 50.1032 33.4118 49.7997 33.5725C48.139 34.4297 46.3175 35.0725 44.3354 35.5011C42.3532 35.9297 40.2997 36.144 38.1747 36.144C35.2461 36.144 32.6657 35.4743 30.4336 34.135C28.2015 32.7958 26.4693 30.885 25.2372 28.4029C24.0229 25.9029 23.4157 22.9833 23.4157 19.644C23.4157 16.3225 24.014 13.4208 25.2104 10.9386C26.4068 8.43862 28.0586 6.51897 30.1657 5.17969C32.2907 3.8404 34.6925 3.17076 37.3711 3.17076C40.514 3.17076 42.8354 4.22433 44.3354 6.33147V4.85826C44.3354 4.25112 44.5943 3.82255 45.1122 3.57255C45.63 3.30469 46.4604 3.17076 47.6032 3.17076ZM75.755 10.2154C77.2729 10.2154 78.7015 10.7154 80.0407 11.7154C80.8265 12.2868 81.2193 13.0368 81.2193 13.9654C81.2193 14.5547 81.0586 15.2511 80.7372 16.0547C80.4157 16.8583 80.0497 17.4654 79.639 17.8761C79.2461 18.2868 78.8265 18.4922 78.38 18.4922C78.13 18.4922 77.8622 18.4208 77.5765 18.2779C76.5765 17.7243 75.5407 17.4475 74.4693 17.4475C73.0943 17.4475 71.8086 17.885 70.6122 18.76C69.4157 19.635 68.4515 20.8404 67.7193 22.3761C67.005 23.9118 66.6479 25.6261 66.6479 27.519V30.0636H74.3354C74.764 30.0636 75.0943 30.144 75.3265 30.3047C75.5586 30.4475 75.7282 30.7154 75.8354 31.1083C75.9604 31.5011 76.0229 32.0725 76.0229 32.8225C76.0229 33.5725 75.9604 34.144 75.8354 34.5368C75.7282 34.9297 75.5586 35.1975 75.3265 35.3404C75.0943 35.4833 74.764 35.5547 74.3354 35.5547H56.014C55.5854 35.5547 55.255 35.4833 55.0229 35.3404C54.7907 35.1975 54.6122 34.9297 54.4872 34.5368C54.38 34.144 54.3265 33.5725 54.3265 32.8225C54.3265 32.0725 54.38 31.5011 54.4872 31.1083C54.6122 30.7154 54.7907 30.4475 55.0229 30.3047C55.255 30.144 55.5854 30.0636 56.014 30.0636H59.9515V16.2958H56.8175C56.389 16.2958 56.0586 16.2243 55.8265 16.0815C55.5943 15.9386 55.4157 15.6708 55.2907 15.2779C55.1836 14.885 55.13 14.3136 55.13 13.5636C55.13 12.8136 55.1836 12.2422 55.2907 11.8493C55.4157 11.4565 55.5943 11.1886 55.8265 11.0458C56.0586 10.885 56.389 10.8047 56.8175 10.8047H64.1568C64.764 10.8047 65.1925 10.9386 65.4425 11.2065C65.7104 11.4565 65.8443 11.885 65.8443 12.4922V18.3047C67.1836 15.7154 68.7193 13.7243 70.4515 12.3315C72.2015 10.9208 73.9693 10.2154 75.755 10.2154ZM95.6925 10.2154C98.4068 10.2154 100.782 10.769 102.818 11.8761C104.853 12.9833 106.416 14.519 107.505 16.4833C108.612 18.4475 109.166 20.6797 109.166 23.1797C109.166 25.6797 108.612 27.9118 107.505 29.8761C106.416 31.8404 104.853 33.3761 102.818 34.4833C100.782 35.5904 98.4068 36.144 95.6925 36.144C92.9782 36.144 90.6032 35.5904 88.5675 34.4833C86.5318 33.3761 84.9604 31.8404 83.8532 29.8761C82.764 27.9118 82.2193 25.6797 82.2193 23.1797C82.2193 20.6797 82.764 18.4475 83.8532 16.4833C84.9604 14.519 86.5318 12.9833 88.5675 11.8761C90.6032 10.769 92.9782 10.2154 95.6925 10.2154ZM95.6925 16.2958C94.4068 16.2958 93.2907 16.5815 92.3443 17.1529C91.3979 17.7065 90.6657 18.5011 90.1479 19.5368C89.6479 20.5725 89.3979 21.7868 89.3979 23.1797C89.3979 24.5725 89.6479 25.7868 90.1479 26.8225C90.6657 27.8583 91.3979 28.6618 92.3443 29.2333C93.2907 29.7868 94.4068 30.0636 95.6925 30.0636C96.9782 30.0636 98.0943 29.7868 99.0407 29.2333C99.9872 28.6618 100.71 27.8583 101.21 26.8225C101.728 25.7868 101.987 24.5725 101.987 23.1797C101.987 21.7868 101.728 20.5725 101.21 19.5368C100.71 18.5011 99.9872 17.7065 99.0407 17.1529C98.0943 16.5815 96.9782 16.2958 95.6925 16.2958ZM148.451 10.8047C148.88 10.8047 149.21 10.885 149.443 11.0458C149.675 11.1886 149.844 11.4565 149.951 11.8493C150.076 12.2422 150.139 12.8136 150.139 13.5636C150.139 14.3136 150.076 14.885 149.951 15.2779C149.844 15.6708 149.675 15.9386 149.443 16.0815C149.21 16.2243 148.88 16.2958 148.451 16.2958H147.353L143.443 34.4029C143.3 35.0458 142.987 35.4922 142.505 35.7422C142.041 36.01 141.273 36.144 140.201 36.144C139.166 36.144 138.398 36.01 137.898 35.7422C137.398 35.4743 137.032 35.0279 136.8 34.4029L133.05 24.894L129.246 34.4029C128.996 35.0279 128.621 35.4743 128.121 35.7422C127.621 36.01 126.844 36.144 125.791 36.144C124.719 36.144 123.951 36.01 123.487 35.7422C123.041 35.4922 122.746 35.0458 122.603 34.4029L118.773 16.2958H117.862C117.434 16.2958 117.103 16.2243 116.871 16.0815C116.639 15.9386 116.469 15.6708 116.362 15.2779C116.237 14.885 116.175 14.3136 116.175 13.5636C116.175 12.8136 116.237 12.2422 116.362 11.8493C116.469 11.4565 116.639 11.1886 116.871 11.0458C117.103 10.885 117.434 10.8047 117.862 10.8047H127.076C127.505 10.8047 127.835 10.885 128.068 11.0458C128.3 11.1886 128.469 11.4565 128.576 11.8493C128.701 12.2422 128.764 12.8136 128.764 13.5636C128.764 14.3136 128.701 14.885 128.576 15.2779C128.469 15.6708 128.3 15.9386 128.068 16.0815C127.835 16.2243 127.505 16.2958 127.076 16.2958H124.8L126.809 26.6886L130.505 17.6083C130.701 17.1083 130.996 16.7333 131.389 16.4833C131.782 16.2154 132.344 16.0815 133.076 16.0815C133.844 16.0815 134.416 16.1886 134.791 16.4029C135.184 16.6172 135.478 16.9565 135.675 17.4208L139.344 26.6886L141.434 16.2958H139.505C139.076 16.2958 138.746 16.2243 138.514 16.0815C138.282 15.9386 138.103 15.6708 137.978 15.2779C137.871 14.885 137.818 14.3136 137.818 13.5636C137.818 12.8136 137.871 12.2422 137.978 11.8493C138.103 11.4565 138.282 11.1886 138.514 11.0458C138.746 10.885 139.076 10.8047 139.505 10.8047H148.451Z" fill="#051627"/>
<path fill-rule="evenodd" clip-rule="evenodd" d="M79.212 20.1289C79.212 30.7941 87.6105 39.4393 97.9707 39.4393C108.331 39.4393 116.729 30.7941 116.729 20.1289C116.729 9.46413 108.331 0.818604 97.9707 0.818604C87.6105 0.818604 79.212 9.46413 79.212 20.1289Z" fill="white"/>
<path fill-rule="evenodd" clip-rule="evenodd" d="M97.9708 4.95654C106.111 4.95654 112.71 11.7495 112.71 20.129C112.71 28.5087 106.111 35.3014 97.9708 35.3014C89.8308 35.3014 83.2319 28.5087 83.2319 20.129C83.2319 11.7495 89.8308 4.95654 97.9708 4.95654" fill="#1A8CFF"/>
<path opacity="0.5" fill-rule="evenodd" clip-rule="evenodd" d="M97.9707 40.1289C87.2406 40.1289 78.5421 31.175 78.5421 20.1289C78.5421 9.0832 87.2406 0.128906 97.9707 0.128906C108.701 0.128906 117.399 9.0832 117.399 20.1289C117.399 31.175 108.701 40.1289 97.9707 40.1289ZM97.9707 0.818569C87.6094 0.818569 79.212 9.46526 79.212 20.1289C79.212 30.7928 87.6093 39.4393 97.9707 39.4393C108.332 39.4393 116.729 30.7928 116.729 20.1289C116.729 9.46526 108.332 0.818569 97.9707 0.818569Z" fill="#051627"/>
<path fill-rule="evenodd" clip-rule="evenodd" d="M114.384 19.784C114.384 10.4523 107.036 2.88745 97.9707 2.88745C88.9056 2.88745 81.5569 10.4523 81.5569 19.784C81.5569 25.001 83.8537 29.6658 87.463 32.7653C84.4474 29.8698 82.5618 25.7432 82.5618 21.1633C82.5618 12.4029 89.4606 5.30124 97.9707 5.30124C106.481 5.30124 113.38 12.4029 113.38 21.1633C113.38 25.7432 111.494 29.8698 108.478 32.7652C112.088 29.6658 114.384 25.001 114.384 19.784ZM116.729 20.1288C116.729 19.7818 116.72 19.4369 116.703 19.0943L116.689 19.3295C116.054 29.4025 107.916 37.3702 97.9707 37.3702C87.9477 37.3702 79.7607 29.2781 79.2385 19.0943C79.2209 19.4369 79.212 19.7818 79.212 20.1288C79.212 30.7936 87.6106 39.4392 97.9707 39.4392C108.331 39.4392 116.729 30.7936 116.729 20.1288Z" fill="black" fill-opacity="0.0524476"/>
<path opacity="0.256138" fill-rule="evenodd" clip-rule="evenodd" d="M97.9708 4.95654C89.8297 4.95654 83.2319 11.7506 83.2319 20.129C83.2319 28.5075 89.8296 35.3014 97.9708 35.3014C106.112 35.3014 112.71 28.5075 112.71 20.129C112.71 11.7506 106.112 4.95654 97.9708 4.95654ZM97.9708 34.6117C90.2008 34.6117 83.9018 28.1278 83.9018 20.129C83.9018 12.1304 90.2008 5.6462 97.9708 5.6462C105.741 5.6462 112.04 12.1304 112.04 20.129C112.04 28.1278 105.741 34.6117 97.9708 34.6117Z" fill="#051627"/>
<path fill-rule="evenodd" clip-rule="evenodd" d="M86.2466 20.2056C86.2466 13.4634 91.4958 8.05981 98.0454 8.05981C104.47 8.05981 109.695 13.4885 109.695 20.2056C109.695 26.7944 104.446 32.1977 98.0454 32.1977C91.5201 32.1977 86.2466 26.8194 86.2466 20.2056ZM109.025 20.2051C109.025 13.8442 104.076 8.74946 98.0449 8.74946C91.8657 8.74946 86.9165 13.8442 86.9165 20.2051C86.9165 26.4136 91.8657 31.5081 98.0449 31.5081C104.076 31.5081 109.025 26.4136 109.025 20.2051Z" fill="black" fill-opacity="0.25"/>
<path fill-rule="evenodd" clip-rule="evenodd" d="M98.0449 8.74951C104.076 8.74951 109.025 13.8443 109.025 20.2052C109.025 26.4137 104.076 31.5081 98.0449 31.5081C91.8658 31.5081 86.9166 26.4137 86.9166 20.2052C86.9166 13.8443 91.8658 8.74951 98.0449 8.74951V8.74951Z" fill="#F7F7F7"/>
<path fill-rule="evenodd" clip-rule="evenodd" d="M102.995 20.129C102.995 22.9856 100.746 25.3014 97.9707 25.3014C95.1957 25.3014 92.9461 22.9856 92.9461 20.129C92.9461 17.2723 95.1957 14.9565 97.9707 14.9565C100.746 14.9565 102.995 17.2723 102.995 20.129Z" fill="black" fill-opacity="0.05"/>
<path fill-rule="evenodd" clip-rule="evenodd" d="M92.2762 20.1289C92.2762 16.8914 94.8257 14.2668 97.9708 14.2668C101.116 14.2668 103.665 16.8914 103.665 20.1289C103.665 23.3664 101.116 25.991 97.9708 25.991C94.8257 25.991 92.2762 23.3664 92.2762 20.1289ZM102.995 20.1289C102.995 17.2723 100.746 14.9565 97.9707 14.9565C95.1957 14.9565 92.9461 17.2723 92.9461 20.1289C92.9461 22.9856 95.1957 25.3014 97.9707 25.3014C100.746 25.3014 102.995 22.9856 102.995 20.1289Z" fill="white"/>
<path fill-rule="evenodd" clip-rule="evenodd" d="M102.995 20.129C102.995 17.2723 100.746 14.9565 97.9707 14.9565C95.1957 14.9565 92.9461 17.2723 92.9461 20.129C92.9461 22.9856 95.1957 25.3014 97.9707 25.3014C100.746 25.3014 102.995 22.9856 102.995 20.129ZM93.616 20.129C93.616 17.6532 95.5657 15.6462 97.9707 15.6462C100.376 15.6462 102.325 17.6532 102.325 20.129C102.325 22.6047 100.376 24.6117 97.9707 24.6117C95.5657 24.6117 93.616 22.6047 93.616 20.129Z" fill="black" fill-opacity="0.15"/>
<path fill-rule="evenodd" clip-rule="evenodd" d="M96.1024 11.1633H99.8386C100.667 11.1633 101.32 11.9097 101.32 12.8089V20.5808C101.32 20.9193 101.202 21.2463 100.987 21.4918L100.438 22.119C100.425 22.1336 100.425 22.1747 100.438 22.1893L100.987 22.8165C101.202 23.062 101.32 23.389 101.32 23.7274V27.4488C101.32 28.348 100.667 29.0944 99.8386 29.0944H96.1024C95.2743 29.0944 94.6207 28.348 94.6207 27.4488V19.6768C94.6207 19.3384 94.7393 19.0114 94.9543 18.7659L95.5035 18.1387C95.5163 18.1241 95.5163 18.083 95.5035 18.0684L94.9543 17.4412C94.7393 17.1957 94.6207 16.8687 94.6207 16.5303V12.8089C94.6207 11.9097 95.2743 11.1633 96.1024 11.1633ZM100.65 12.8624C100.65 12.3121 100.268 11.8659 99.796 11.8659H96.145C95.6732 11.8659 95.2907 12.3121 95.2907 12.8624V16.5553C95.2907 16.7315 95.3507 16.9005 95.4575 17.0251L95.9915 17.6479C96.2139 17.9073 96.2139 18.328 95.9915 18.5874L95.4575 19.2102C95.3507 19.3348 95.2907 19.5038 95.2907 19.6799V27.3951C95.2907 27.9455 95.6732 28.3916 96.145 28.3916H99.796C100.268 28.3916 100.65 27.9455 100.65 27.3951V23.7022C100.65 23.526 100.59 23.3571 100.484 23.2325L99.9496 22.6097C99.7272 22.3502 99.7272 21.9296 99.9496 21.6702L100.484 21.0474C100.59 20.9228 100.65 20.7538 100.65 20.5776V12.8624Z" fill="white"/>
<path fill-rule="evenodd" clip-rule="evenodd" d="M95.291 16.5498V12.8511C95.291 12.2999 95.6734 11.853 96.1452 11.853H99.7963C100.268 11.853 100.651 12.2999 100.651 12.8511V20.5784C100.651 20.7549 100.591 20.9241 100.484 21.0489L99.9498 21.6727C99.7274 21.9325 99.7274 22.3538 99.9498 22.6137L100.484 23.2375C100.591 23.3622 100.651 23.5315 100.651 23.708V27.4067C100.651 27.9579 100.268 28.4047 99.7963 28.4047H96.1452C95.6734 28.4047 95.291 27.9579 95.291 27.4067V19.6793C95.291 19.5029 95.351 19.3336 95.4578 19.2089L95.9917 18.5851C96.2141 18.3252 96.2141 17.9039 95.9917 17.6441L95.4578 17.0203C95.351 16.8955 95.291 16.7263 95.291 16.5498Z" fill="#0A2D4D"/>
<path fill-rule="evenodd" clip-rule="evenodd" d="M100.651 12.8511C100.651 12.2999 100.268 11.853 99.7963 11.853H96.1452C95.6734 11.853 95.291 12.2999 95.291 12.8511V16.5498C95.291 16.7263 95.351 16.8955 95.4578 17.0203L95.9917 17.6441C96.2141 17.9039 96.2141 18.3252 95.9917 18.5851L95.4578 19.2089C95.351 19.3336 95.291 19.5029 95.291 19.6793V27.4067C95.291 27.9579 95.6734 28.4047 96.1452 28.4047H99.7963C100.268 28.4047 100.651 27.9579 100.651 27.4067V23.708C100.651 23.5315 100.591 23.3622 100.484 23.2375L99.9498 22.6137C99.7274 22.3538 99.7274 21.9325 99.9498 21.6727L100.484 21.0489C100.591 20.9241 100.651 20.7549 100.651 20.5784V12.8511ZM96.2418 12.5568L99.6998 12.5614L99.7287 12.5634C99.8625 12.5817 99.9807 12.7253 99.9807 12.9179V20.5794L99.9792 20.5943C99.9774 20.6034 99.9741 20.6105 99.9709 20.6141L99.4116 21.2327L99.3663 21.2856C98.9591 21.7883 98.9742 22.5462 99.4116 23.03L99.9709 23.6487L99.9756 23.6564C99.9785 23.6631 99.9807 23.6726 99.9807 23.6833V27.3491L99.9789 27.3896C99.9625 27.5748 99.8353 27.7056 99.6998 27.7056L96.2418 27.701L96.213 27.699C96.0792 27.6807 95.961 27.5371 95.961 27.3444V19.683L95.9624 19.668C95.9643 19.6589 95.9675 19.6519 95.9708 19.6483L96.5301 19.0296L96.5754 18.9768C96.9825 18.4741 96.9675 17.7161 96.5301 17.2324L95.9708 16.6137L95.9661 16.6059C95.9632 16.5992 95.961 16.5898 95.961 16.579V12.9133L95.9628 12.8728C95.9791 12.6875 96.1064 12.5568 96.2418 12.5568Z" fill="black" fill-opacity="0.4"/>
<path d="M24.1155 31.4979C24.4994 31.4979 24.7954 31.5699 25.0033 31.7139C25.2113 31.8418 25.3633 32.0818 25.4593 32.4337C25.5712 32.7857 25.6272 33.2976 25.6272 33.9694C25.6272 34.6413 25.5712 35.1532 25.4593 35.5052C25.3633 35.8571 25.2113 36.0971 25.0033 36.225C24.7954 36.353 24.4994 36.417 24.1155 36.417H6.55078C6.16685 36.417 5.87091 36.353 5.66295 36.225C5.45499 36.0971 5.29501 35.8571 5.18304 35.5052C5.08705 35.1532 5.03906 34.6413 5.03906 33.9694C5.03906 33.2976 5.08705 32.7857 5.18304 32.4337C5.29501 32.0818 5.45499 31.8418 5.66295 31.7139C5.87091 31.5699 6.16685 31.4979 6.55078 31.4979H12.4537V15.3249L7.43862 18.1804C7.15067 18.3404 6.89472 18.4203 6.67076 18.4203C6.36682 18.4203 6.07087 18.2764 5.78292 17.9884C5.51097 17.7005 5.23103 17.2446 4.94308 16.6207C4.62314 15.9168 4.46317 15.3329 4.46317 14.869C4.46317 14.5331 4.53516 14.2531 4.67913 14.0292C4.8391 13.8052 5.07906 13.6052 5.399 13.4293L15.5251 7.71833C15.973 7.46238 16.4289 7.3344 16.8929 7.3344C17.3568 7.3344 17.7327 7.46238 18.0206 7.71833C18.3086 7.97428 18.4526 8.35821 18.4526 8.87012V31.4979H24.1155Z" fill="#051627"/>
<rect x="18.8684" y="31.342" width="21.9104" height="4.93353" rx="1.14286" fill="#051627"/>
</svg>
